# xmcd
#
# Track frame offsets:
# 150
# 23735
# 36497
# 47335
# 59190
# 69992
# 83885
# 100415
# 117552
# 132260
# 147505
# 162027
# 174487
# 186630
#
# Disc length: 2739 seconds
#
#
# Revision: 5
# Processed by: cddbd v1.5.2PL0 Copyright (c) Steve Scherf et al.
# Submitted via: FreeRIP 2.96 
#
DISCID=cf0ab10e
DTITLE=Bailão de Peão - Internacional Vol. 1
DYEAR=1900
DGENRE=
TTITLE0=Shania Twain - Any Man Of Mine
TTITLE1=Billy ray - These Boot's Are Made
TTITLE2=The Kentucky - Blue Moon of Kentucky
TTITLE3=Sammy Kershaw - Better Call a Preacher
TTITLE4=Johnny Cash - Hey Poter
TTITLE5=Kathy Mattea - Amarillo
TTITLE6=Toby Keith - Big Ol' Truck
TTITLE7=Keith Stegall - Roll The Dice
TTITLE8=Devis Daniel - Better Half of My Heart
TTITLE9=Chely Wrigtht - Right in The Middle of  It
TTITLE10=Shane Sutoon - I've Got  Your Number
TTITLE11=Wesley Denni's - Who's Counting
TTITLE12=Runner - Home Alone
TTITLE13=The Kentucky Headhunters - Dumas Walker
EXTD=
EXTT0=
EXTT1=
EXTT2=
EXTT3=
EXTT4=
EXTT5=
EXTT6=
EXTT7=
EXTT8=
EXTT9=
EXTT10=
EXTT11=
EXTT12=
EXTT13=
PLAYORDER=
